<?xml version="1.0" encoding="UTF-8"?>
<!DOCTYPE svg PUBLIC "-//W3C//DTD SVG 1.1//EN" "http://www.w3.org/Graphics/SVG/1.1/DTD/svg11.dtd">
<svg xmlns="http://www.w3.org/2000/svg" version="1.1" width="404px" height="382px" style="shape-rendering:geometricPrecision; text-rendering:geometricPrecision; image-rendering:optimizeQuality; fill-rule:evenodd; clip-rule:evenodd" xmlns:xlink="http://www.w3.org/1999/xlink">
<g><path style="opacity:1" fill="#fefefe" d="M -0.5,-0.5 C 134.167,-0.5 268.833,-0.5 403.5,-0.5C 403.5,126.833 403.5,254.167 403.5,381.5C 268.833,381.5 134.167,381.5 -0.5,381.5C -0.5,254.167 -0.5,126.833 -0.5,-0.5 Z"/></g>
<g><path style="opacity:1" fill="#343f4f" d="M 79.5,2.5 C 162.501,2.33334 245.501,2.5 328.5,3C 346.264,7.6883 352.097,18.855 346,36.5C 306.482,102.714 267.149,169.047 228,235.5C 219.772,250.687 207.605,255.187 191.5,249C 188.355,247.022 185.688,244.522 183.5,241.5C 143.326,173.785 102.826,105.785 62,37.5C 55.7534,19.7209 61.5867,8.05423 79.5,2.5 Z"/></g>
<g><path style="opacity:1" fill="#fdfdfd" d="M 181.5,43.5 C 194.837,43.3334 208.171,43.5001 221.5,44C 222.126,44.7504 222.626,45.5838 223,46.5C 222.912,69.8626 221.912,93.1959 220,116.5C 219.487,118.521 218.32,120.021 216.5,121C 206.5,121.667 196.5,121.667 186.5,121C 185.667,120.167 184.833,119.333 184,118.5C 181.114,94.247 179.781,69.9136 180,45.5C 180.717,44.9558 181.217,44.2891 181.5,43.5 Z"/></g>
<g><path style="opacity:1" fill="#fcfcfc" d="M 196.5,129.5 C 219.392,130.335 227.892,141.668 222,163.5C 212.153,176.507 200.32,178.673 186.5,170C 175.146,158.568 174.813,146.901 185.5,135C 189.017,132.674 192.683,130.84 196.5,129.5 Z"/></g>
<g><path style="opacity:1" fill="#343f4f" d="M 387.5,132.5 C 393.98,131.985 398.48,134.651 401,140.5C 401.667,201.167 401.667,261.833 401,322.5C 399.025,330.477 394.192,335.977 386.5,339C 354.49,351.447 322.657,364.28 291,377.5C 290.167,310.498 290.333,243.498 291.5,176.5C 323.829,162.332 355.829,147.665 387.5,132.5 Z"/></g>
<g><path style="opacity:1" fill="#343f4f" d="M 94.5,139.5 C 95.9778,139.238 97.3112,139.571 98.5,140.5C 102.47,150.438 106.97,160.104 112,169.5C 112.833,224.17 112.667,278.836 111.5,333.5C 81.1667,347.333 50.8333,361.167 20.5,375C 12.3071,379.569 6.14041,377.735 2,369.5C 1.33333,308.5 1.33333,247.5 2,186.5C 3.69985,180.6 7.19985,176.1 12.5,173C 40.036,162.057 67.3693,150.89 94.5,139.5 Z"/></g>
<g><path style="opacity:1" fill="#555555" d="M 136.5,208.5 C 135.501,249.663 135.168,290.997 135.5,332.5C 134.335,290.669 134.169,248.669 135,206.5C 135.717,207.044 136.217,207.711 136.5,208.5 Z"/></g>
<g><path style="opacity:1" fill="#565656" d="M 266.5,376.5 C 267.833,320.5 267.833,264.5 266.5,208.5C 266.783,207.711 267.283,207.044 268,206.5C 268.833,263.503 268.667,320.503 267.5,377.5C 266.893,377.376 266.56,377.043 266.5,376.5 Z"/></g>
<g><path style="opacity:1" fill="#343f4f" d="M 136.5,208.5 C 150.145,228.323 165.145,247.156 181.5,265C 194.804,273.598 208.138,273.598 221.5,265C 237.855,247.156 252.855,228.323 266.5,208.5C 267.833,264.5 267.833,320.5 266.5,376.5C 222.611,362.204 178.944,347.537 135.5,332.5C 135.168,290.997 135.501,249.663 136.5,208.5 Z"/></g>
</svg>
