<?xml version="1.0" encoding="UTF-8"?>
<!DOCTYPE svg PUBLIC "-//W3C//DTD SVG 1.1//EN" "http://www.w3.org/Graphics/SVG/1.1/DTD/svg11.dtd">
<svg xmlns="http://www.w3.org/2000/svg" version="1.1" width="404px" height="382px" style="shape-rendering:geometricPrecision; text-rendering:geometricPrecision; image-rendering:optimizeQuality; fill-rule:evenodd; clip-rule:evenodd" xmlns:xlink="http://www.w3.org/1999/xlink">
<g><path style="opacity:0.828" fill="#121920" d="M 329.5,3.5 C 244.482,3.18007 159.482,3.51341 74.5,4.5C 75.6085,3.71003 76.9419,3.21003 78.5,3C 162.334,2.16766 246.001,2.33433 329.5,3.5 Z"/></g>
<g><path style="opacity:1" fill="#333f4f" d="M 329.5,3.5 C 331.599,4.61185 333.933,5.27852 336.5,5.5C 346.521,11.2233 350.354,19.89 348,31.5C 347.856,34.4422 346.689,36.7756 344.5,38.5C 341.641,40.4295 338.974,42.5962 336.5,45C 336.833,45.3333 337.167,45.6667 337.5,46C 335.965,48.6239 334.798,51.4572 334,54.5C 333.667,53.8333 333.333,53.1667 333,52.5C 332.047,54.4552 330.713,56.1218 329,57.5C 329.522,59.8799 329.355,62.2132 328.5,64.5C 327.504,64.4142 326.671,64.7476 326,65.5C 325.685,67.5856 325.185,69.5856 324.5,71.5C 324.672,72.4916 324.338,73.1583 323.5,73.5C 322.094,73.9731 321.427,74.9731 321.5,76.5C 321.672,77.4916 321.338,78.1583 320.5,78.5C 319.094,78.9731 318.427,79.9731 318.5,81.5C 317.11,82.8993 316.11,84.5659 315.5,86.5C 313.721,87.6697 312.721,89.3364 312.5,91.5C 309.67,97.8302 306.337,103.83 302.5,109.5C 300.519,111.144 298.519,112.81 296.5,114.5C 295.637,115.726 295.637,117.06 296.5,118.5C 295.094,118.973 294.427,119.973 294.5,121.5C 293.326,122.514 292.66,123.847 292.5,125.5C 292.167,126.167 291.833,126.833 291.5,127.5C 290.21,128.058 289.377,129.058 289,130.5C 288.667,130.167 288.333,129.833 288,129.5C 286.872,131.345 286.372,133.345 286.5,135.5C 284.75,136.659 283.75,138.326 283.5,140.5C 281.618,141.221 281.285,142.221 282.5,143.5C 282.5,144.167 282.167,144.5 281.5,144.5C 278.836,146.484 277.169,149.151 276.5,152.5C 276.167,153.167 275.833,153.833 275.5,154.5C 274.094,154.973 273.427,155.973 273.5,157.5C 273.672,158.492 273.338,159.158 272.5,159.5C 270.873,161.464 268.873,162.797 266.5,163.5C 265.313,167.925 263.979,172.259 262.5,176.5C 260.738,177.262 259.738,178.596 259.5,180.5C 257.86,185.783 255.194,190.449 251.5,194.5C 248.612,197.077 245.612,199.577 242.5,202C 243.38,203.356 243.714,204.856 243.5,206.5C 242.859,207.482 242.193,208.482 241.5,209.5C 241.624,210.107 241.957,210.44 242.5,210.5C 242.5,211.167 242.167,211.5 241.5,211.5C 240.094,211.973 239.427,212.973 239.5,214.5C 238,218.173 236,221.506 233.5,224.5C 231.273,225.401 230.273,227.067 230.5,229.5C 228.896,230.287 228.229,231.62 228.5,233.5C 226.554,234.035 225.554,235.368 225.5,237.5C 224.094,237.973 223.427,238.973 223.5,240.5C 223.446,242.632 222.446,243.965 220.5,244.5C 219.167,245.167 218.167,246.167 217.5,247.5C 215.847,247.66 214.514,248.326 213.5,249.5C 211.214,249.595 209.214,250.262 207.5,251.5C 205.034,252.634 202.367,252.801 199.5,252C 195.89,251.528 192.89,250.028 190.5,247.5C 188.438,245.714 187.104,243.381 186.5,240.5C 185.372,239.738 184.205,239.071 183,238.5C 182.867,235.475 181.867,232.808 180,230.5C 179.536,231.094 179.369,231.761 179.5,232.5C 178.833,231.833 178.167,231.167 177.5,230.5C 175.245,227.223 172.912,223.89 170.5,220.5C 169.754,219.264 169.421,217.93 169.5,216.5C 169.068,215.29 168.401,214.29 167.5,213.5C 165.571,211.94 164.238,209.94 163.5,207.5C 163.34,205.847 162.674,204.514 161.5,203.5C 159.223,203.137 158.556,202.137 159.5,200.5C 156.304,196.104 153.637,191.437 151.5,186.5C 151.631,185.761 151.464,185.094 151,184.5C 150.31,183.262 149.81,183.262 149.5,184.5C 144.529,175.901 139.529,167.234 134.5,158.5C 134.34,156.847 133.674,155.514 132.5,154.5C 132.573,152.973 131.906,151.973 130.5,151.5C 128.336,149.178 126.669,146.511 125.5,143.5C 125.592,139.941 124.759,136.608 123,133.5C 122.667,133.833 122.333,134.167 122,134.5C 122.053,131.387 120.886,128.887 118.5,127C 118.833,126.667 119.167,126.333 119.5,126C 117.971,122.971 115.638,120.805 112.5,119.5C 111.949,116.944 110.949,114.611 109.5,112.5C 110.46,111.188 110.294,109.854 109,108.5C 108.667,108.833 108.333,109.167 108,109.5C 107.517,108.552 107.351,107.552 107.5,106.5C 106.5,106.5 105.5,106.5 104.5,106.5C 104.04,102.703 102.04,100.036 98.5,98.5C 98.5,98.1667 98.5,97.8333 98.5,97.5C 98.2624,95.5956 97.2624,94.2623 95.5,93.5C 94.8333,93.5 94.5,93.1667 94.5,92.5C 95.7152,91.221 95.3818,90.221 93.5,89.5C 92.8333,89.5 92.5,89.1667 92.5,88.5C 93.6934,86.1535 93.0268,84.1535 90.5,82.5C 90.7093,81.914 91.0426,81.414 91.5,81C 89.7166,79.2613 88.0499,77.4279 86.5,75.5C 87.4847,73.9017 87.6514,72.235 87,70.5C 86.6667,71.1667 86.3333,71.8333 86,72.5C 85.0735,69.2942 83.9068,68.9608 82.5,71.5C 80.8079,69.7952 79.4746,67.7952 78.5,65.5C 79.7152,64.221 79.3818,63.221 77.5,62.5C 70.4028,52.5221 64.2361,41.8554 59,30.5C 57.6499,22.0458 60.1499,15.0458 66.5,9.5C 67.7095,9.06795 68.7095,8.40128 69.5,7.5C 70.4856,5.59225 72.1523,4.59225 74.5,4.5C 159.482,3.51341 244.482,3.18007 329.5,3.5 Z M 222.5,45.5 C 222.669,54.059 222.669,62.7256 222.5,71.5C 221.768,78.4756 221.435,85.4756 221.5,92.5C 220.698,100.422 220.198,108.422 220,116.5C 219.215,118.286 218.049,119.786 216.5,121C 206.423,121.807 196.423,121.64 186.5,120.5C 185.5,119.833 184.5,119.167 183.5,118.5C 183.815,114.629 183.482,110.962 182.5,107.5C 181.373,91.521 180.707,75.521 180.5,59.5C 180.131,56.6811 179.798,53.8477 179.5,51C 179.376,48.41 180.042,46.0767 181.5,44C 194.5,43.3333 207.5,43.3333 220.5,44C 221.044,44.7172 221.711,45.2172 222.5,45.5 Z M 203.5,129.5 C 211.743,131.116 218.076,135.449 222.5,142.5C 222.402,144.553 223.069,146.22 224.5,147.5C 224.5,150.833 224.5,154.167 224.5,157.5C 222.599,162.302 219.932,166.636 216.5,170.5C 214.326,170.75 212.659,171.75 211.5,173.5C 205.167,174.833 198.833,174.833 192.5,173.5C 192.167,173.5 191.833,173.5 191.5,173.5C 191.027,172.094 190.027,171.427 188.5,171.5C 188.027,170.094 187.027,169.427 185.5,169.5C 184.876,167.246 183.543,165.579 181.5,164.5C 180.122,161.094 178.789,157.76 177.5,154.5C 177.384,143.774 182.05,136.108 191.5,131.5C 195.5,130.833 199.5,130.167 203.5,129.5 Z"/></g>
<g><path style="opacity:0.539" fill="#01060e" d="M 329.5,3.5 C 332.228,3.17057 334.562,3.83724 336.5,5.5C 333.933,5.27852 331.599,4.61185 329.5,3.5 Z"/></g>
<g><path style="opacity:0.957" fill="#0b0e13" d="M 69.5,7.5 C 68.7095,8.40128 67.7095,9.06795 66.5,9.5C 66.8212,7.95186 67.8212,7.28519 69.5,7.5 Z"/></g>
<g><path style="opacity:0.067" fill="#13171b" d="M 222.5,45.5 C 223.117,45.6107 223.617,45.944 224,46.5C 224.167,48 224.333,49.5 224.5,51C 223.689,57.8102 223.356,64.6435 223.5,71.5C 223.167,71.5 222.833,71.5 222.5,71.5C 222.669,62.7256 222.669,54.059 222.5,45.5 Z"/></g>
<g><path style="opacity:1" fill="#2e333e" d="M 344.5,38.5 C 341.532,44.4361 338.198,50.1028 334.5,55.5C 332.738,56.2623 331.738,57.5956 331.5,59.5C 331.727,61.9328 330.727,63.5994 328.5,64.5C 329.355,62.2132 329.522,59.8799 329,57.5C 330.713,56.1218 332.047,54.4552 333,52.5C 333.333,53.1667 333.667,53.8333 334,54.5C 334.798,51.4572 335.965,48.6239 337.5,46C 337.167,45.6667 336.833,45.3333 336.5,45C 338.974,42.5962 341.641,40.4295 344.5,38.5 Z"/></g>
<g><path style="opacity:0.761" fill="#00010a" d="M 334.5,55.5 C 334.262,57.4044 333.262,58.7377 331.5,59.5C 331.738,57.5956 332.738,56.2623 334.5,55.5 Z"/></g>
<g><path style="opacity:0.714" fill="#020208" d="M 77.5,62.5 C 79.3818,63.221 79.7152,64.221 78.5,65.5C 77.8902,64.609 77.5569,63.609 77.5,62.5 Z"/></g>
<g><path style="opacity:1" fill="#262a34" d="M 328.5,64.5 C 328.649,65.552 328.483,66.552 328,67.5C 327.26,69.3187 326.093,70.6521 324.5,71.5C 325.185,69.5856 325.685,67.5856 326,65.5C 326.671,64.7476 327.504,64.4142 328.5,64.5 Z"/></g>
<g><path style="opacity:0.675" fill="#050710" d="M 323.5,73.5 C 323.715,75.1788 323.048,76.1788 321.5,76.5C 321.427,74.9731 322.094,73.9731 323.5,73.5 Z"/></g>
<g><path style="opacity:0.995" fill="#2e333f" d="M 92.5,88.5 C 88.9043,82.9735 85.571,77.3068 82.5,71.5C 83.9068,68.9608 85.0735,69.2942 86,72.5C 86.3333,71.8333 86.6667,71.1667 87,70.5C 87.6514,72.235 87.4847,73.9017 86.5,75.5C 88.0499,77.4279 89.7166,79.2613 91.5,81C 91.0426,81.414 90.7093,81.914 90.5,82.5C 93.0268,84.1535 93.6934,86.1535 92.5,88.5 Z"/></g>
<g><path style="opacity:0.931" fill="#292e3c" d="M 222.5,71.5 C 222.833,71.5 223.167,71.5 223.5,71.5C 223.741,78.7299 223.075,85.7299 221.5,92.5C 221.435,85.4756 221.768,78.4756 222.5,71.5 Z"/></g>
<g><path style="opacity:0.435" fill="#090b11" d="M 320.5,78.5 C 320.715,80.1788 320.048,81.1788 318.5,81.5C 318.427,79.9731 319.094,78.9731 320.5,78.5 Z"/></g>
<g><path style="opacity:0.761" fill="#0b0d12" d="M 318.5,81.5 C 318.741,84.0336 317.741,85.7002 315.5,86.5C 316.11,84.5659 317.11,82.8993 318.5,81.5 Z"/></g>
<g><path style="opacity:0.956" fill="#06080d" d="M 315.5,86.5 C 315.727,88.9328 314.727,90.5994 312.5,91.5C 312.721,89.3364 313.721,87.6697 315.5,86.5 Z"/></g>
<g><path style="opacity:0.722" fill="#0f111a" d="M 93.5,89.5 C 95.3818,90.221 95.7152,91.221 94.5,92.5C 93.8902,91.609 93.5569,90.609 93.5,89.5 Z"/></g>
<g><path style="opacity:0.361" fill="#0d111a" d="M 95.5,93.5 C 97.2624,94.2623 98.2624,95.5956 98.5,97.5C 96.7376,96.7377 95.7376,95.4044 95.5,93.5 Z"/></g>
<g><path style="opacity:0.984" fill="#1f232d" d="M 180.5,59.5 C 180.707,75.521 181.373,91.521 182.5,107.5C 181.586,100.489 180.252,92.9889 178.5,85C 179.154,76.4015 179.82,67.9015 180.5,59.5 Z"/></g>
<g><path style="opacity:1" fill="#1f232b" d="M 302.5,109.5 C 300.863,112.754 298.863,115.754 296.5,118.5C 295.637,117.06 295.637,115.726 296.5,114.5C 298.519,112.81 300.519,111.144 302.5,109.5 Z"/></g>
<g><path style="opacity:0.864" fill="#00020a" d="M 296.5,118.5 C 296.573,120.027 295.906,121.027 294.5,121.5C 294.427,119.973 295.094,118.973 296.5,118.5 Z"/></g>
<g><path style="opacity:0.891" fill="#01040c" d="M 183.5,118.5 C 184.5,119.167 185.5,119.833 186.5,120.5C 184.668,121.718 183.668,121.051 183.5,118.5 Z"/></g>
<g><path style="opacity:1" fill="#2f3540" d="M 98.5,98.5 C 102.04,100.036 104.04,102.703 104.5,106.5C 105.5,106.5 106.5,106.5 107.5,106.5C 107.351,107.552 107.517,108.552 108,109.5C 108.333,109.167 108.667,108.833 109,108.5C 110.294,109.854 110.46,111.188 109.5,112.5C 110.949,114.611 111.949,116.944 112.5,119.5C 115.638,120.805 117.971,122.971 119.5,126C 119.167,126.333 118.833,126.667 118.5,127C 120.886,128.887 122.053,131.387 122,134.5C 122.333,134.167 122.667,133.833 123,133.5C 124.759,136.608 125.592,139.941 125.5,143.5C 116.238,128.641 107.238,113.641 98.5,98.5 Z"/></g>
<g><path style="opacity:0.612" fill="#0e1018" d="M 294.5,121.5 C 294.771,123.38 294.104,124.713 292.5,125.5C 292.66,123.847 293.326,122.514 294.5,121.5 Z"/></g>
<g><path style="opacity:0.553" fill="#1b212b" d="M 203.5,129.5 C 199.5,130.167 195.5,130.833 191.5,131.5C 195.329,129.202 199.329,128.535 203.5,129.5 Z"/></g>
<g><path style="opacity:1" fill="#222732" d="M 291.5,127.5 C 290.831,130.849 289.164,133.516 286.5,135.5C 286.372,133.345 286.872,131.345 288,129.5C 288.333,129.833 288.667,130.167 289,130.5C 289.377,129.058 290.21,128.058 291.5,127.5 Z"/></g>
<g><path style="opacity:1" fill="#262d39" d="M 191.5,131.5 C 182.05,136.108 177.384,143.774 177.5,154.5C 177.01,150.949 176.677,147.282 176.5,143.5C 177.167,142.833 177.833,142.167 178.5,141.5C 177.674,140.549 177.508,139.549 178,138.5C 179.073,139.28 180.24,139.113 181.5,138C 180.366,136.984 180.699,136.317 182.5,136C 181.007,134.844 181.174,134.01 183,133.5C 183.772,133.645 184.439,133.978 185,134.5C 186.287,131.855 188.453,130.855 191.5,131.5 Z"/></g>
<g><path style="opacity:1" fill="#343f4f" d="M 393.5,133.5 C 395.38,133.229 396.713,133.896 397.5,135.5C 398.072,137.255 398.906,138.922 400,140.5C 400.5,201.499 400.667,262.499 400.5,323.5C 399.01,330.323 395.01,334.99 388.5,337.5C 386.305,336.392 384.305,336.559 382.5,338C 383.34,339.666 382.84,339.833 381,338.5C 379.306,339.699 377.806,341.032 376.5,342.5C 374.658,342.723 372.825,343.057 371,343.5C 369.674,343.245 368.674,342.578 368,341.5C 366.233,342.817 364.899,344.484 364,346.5C 362.301,345.594 360.467,345.261 358.5,345.5C 358.5,346.833 358.5,348.167 358.5,349.5C 351.818,349.647 346.152,351.98 341.5,356.5C 340.22,357.931 338.553,358.598 336.5,358.5C 332.658,358.868 328.991,359.868 325.5,361.5C 323.128,358.879 322.462,359.212 323.5,362.5C 321.218,363.9 319.718,363.234 319,360.5C 318.259,361.641 317.425,361.641 316.5,360.5C 317.17,362.328 317.17,364.328 316.5,366.5C 312.525,366.49 309.191,367.823 306.5,370.5C 301.41,369.374 297.41,371.041 294.5,375.5C 293.5,375.5 292.5,375.5 291.5,375.5C 291.17,309.096 291.504,242.762 292.5,176.5C 298.861,172.989 305.528,169.989 312.5,167.5C 313.75,167.577 314.583,168.244 315,169.5C 315.249,168.376 315.749,167.376 316.5,166.5C 318.396,165.725 320.063,164.725 321.5,163.5C 324.485,162.276 327.151,162.609 329.5,164.5C 332.167,163.5 332.167,162.5 329.5,161.5C 330.34,160.265 331.34,159.265 332.5,158.5C 332.842,157.662 333.508,157.328 334.5,157.5C 337.912,156.958 340.912,155.625 343.5,153.5C 344.822,153.33 345.989,153.663 347,154.5C 347.374,153.584 347.874,152.75 348.5,152C 350.727,151.059 352.727,149.892 354.5,148.5C 358.586,147.745 362.253,146.079 365.5,143.5C 368.751,141.043 372.418,139.376 376.5,138.5C 380.588,139.921 384.588,139.755 388.5,138C 385.833,137.333 385.833,136.667 388.5,136C 388.167,135.667 387.833,135.333 387.5,135C 389.436,134.187 391.436,133.687 393.5,133.5 Z"/></g>
<g><path style="opacity:1" fill="#2f3544" d="M 393.5,133.5 C 391.436,133.687 389.436,134.187 387.5,135C 387.833,135.333 388.167,135.667 388.5,136C 385.833,136.667 385.833,137.333 388.5,138C 384.588,139.755 380.588,139.921 376.5,138.5C 381.686,134.542 387.353,132.875 393.5,133.5 Z"/></g>
<g><path style="opacity:0.549" fill="#090b14" d="M 286.5,135.5 C 286.727,137.933 285.727,139.599 283.5,140.5C 283.75,138.326 284.75,136.659 286.5,135.5 Z"/></g>
<g><path style="opacity:0.565" fill="#03070d" d="M 283.5,140.5 C 283.443,141.609 283.11,142.609 282.5,143.5C 281.285,142.221 281.618,141.221 283.5,140.5 Z"/></g>
<g><path style="opacity:1" fill="#333f4f" d="M 92.5,140.5 C 94.2079,140.623 96.0412,140.956 98,141.5C 97.5813,147.059 98.748,152.392 101.5,157.5C 103.022,158.562 104.688,159.229 106.5,159.5C 106.794,162.754 108.127,165.421 110.5,167.5C 111.826,222.875 111.826,278.209 110.5,333.5C 107.759,333.707 105.426,334.707 103.5,336.5C 103.158,337.338 102.492,337.672 101.5,337.5C 100.849,336.909 100.182,336.243 99.5,335.5C 97.7095,337.46 95.5428,338.793 93,339.5C 92.6924,338.692 92.1924,338.025 91.5,337.5C 89.7489,339.064 88.7489,341.064 88.5,343.5C 86.5739,345.293 84.2406,346.293 81.5,346.5C 79.7231,346.214 78.0564,345.547 76.5,344.5C 74.1667,344.833 73.8333,345.833 75.5,347.5C 73.1526,348.151 71.4859,349.484 70.5,351.5C 68.8008,351.34 67.1341,351.506 65.5,352C 63.3266,353.836 60.8266,355.003 58,355.5C 56.6898,356.13 55.8565,357.13 55.5,358.5C 55.1583,359.338 54.4916,359.672 53.5,359.5C 50.2431,359.668 47.2431,360.668 44.5,362.5C 40.0031,361.252 37.0031,362.918 35.5,367.5C 33.8185,369.008 31.8185,370.008 29.5,370.5C 26.7594,370.707 24.4261,371.707 22.5,373.5C 21.4863,374.674 20.153,375.34 18.5,375.5C 16.3037,375.59 14.137,375.923 12,376.5C 9.77392,375.967 7.60726,375.3 5.5,374.5C 4.5,374.167 3.83333,373.5 3.5,372.5C 3.37133,370.784 3.038,369.117 2.5,367.5C 3.4959,367.414 4.32924,367.748 5,368.5C 5.25112,366.567 5.75112,364.734 6.5,363C 5.20495,304.03 5.20495,245.197 6.5,186.5C 5.5,186.5 4.5,186.5 3.5,186.5C 3.5,185.5 3.5,184.5 3.5,183.5C 4.81838,179.668 7.15171,176.501 10.5,174C 31.9607,164.601 53.6274,155.768 75.5,147.5C 75.56,148.043 75.8933,148.376 76.5,148.5C 80.1128,147.198 83.4461,145.531 86.5,143.5C 88.2504,142.13 90.2504,141.13 92.5,140.5 Z"/></g>
<g><path style="opacity:0.482" fill="#131318" d="M 222.5,142.5 C 223.931,143.78 224.598,145.447 224.5,147.5C 223.069,146.22 222.402,144.553 222.5,142.5 Z"/></g>
<g><path style="opacity:0.835" fill="#1f252e" d="M 365.5,143.5 C 362.253,146.079 358.586,147.745 354.5,148.5C 357.751,146.043 361.418,144.376 365.5,143.5 Z"/></g>
<g><path style="opacity:0.925" fill="#1d2129" d="M 86.5,143.5 C 83.4461,145.531 80.1128,147.198 76.5,148.5C 75.8933,148.376 75.56,148.043 75.5,147.5C 79.0205,145.771 82.6872,144.438 86.5,143.5 Z"/></g>
<g><path style="opacity:1" fill="#2d3440" d="M 106.5,159.5 C 104.688,159.229 103.022,158.562 101.5,157.5C 98.748,152.392 97.5813,147.059 98,141.5C 96.0412,140.956 94.2079,140.623 92.5,140.5C 94.5188,139.245 96.5188,138.911 98.5,139.5C 101.18,146.188 103.846,152.855 106.5,159.5 Z"/></g>
<g><path style="opacity:0.925" fill="#060a11" d="M 281.5,144.5 C 280.331,147.511 278.664,150.178 276.5,152.5C 277.169,149.151 278.836,146.484 281.5,144.5 Z"/></g>
<g><path style="opacity:0.817" fill="#000107" d="M 130.5,151.5 C 131.906,151.973 132.573,152.973 132.5,154.5C 131.094,154.027 130.427,153.027 130.5,151.5 Z"/></g>
<g><path style="opacity:1" fill="#1f252f" d="M 354.5,148.5 C 352.727,149.892 350.727,151.059 348.5,152C 347.874,152.75 347.374,153.584 347,154.5C 345.989,153.663 344.822,153.33 343.5,153.5C 346.751,151.043 350.418,149.376 354.5,148.5 Z"/></g>
<g><path style="opacity:0.804" fill="#151921" d="M 343.5,153.5 C 340.912,155.625 337.912,156.958 334.5,157.5C 337.088,155.375 340.088,154.042 343.5,153.5 Z"/></g>
<g><path style="opacity:0.844" fill="#070a14" d="M 132.5,154.5 C 133.674,155.514 134.34,156.847 134.5,158.5C 132.896,157.713 132.229,156.38 132.5,154.5 Z"/></g>
<g><path style="opacity:0.514" fill="#050814" d="M 275.5,154.5 C 275.573,156.027 274.906,157.027 273.5,157.5C 273.427,155.973 274.094,154.973 275.5,154.5 Z"/></g>
<g><path style="opacity:0.208" fill="#1a1f26" d="M 106.5,159.5 C 108.341,161.849 109.674,164.515 110.5,167.5C 108.127,165.421 106.794,162.754 106.5,159.5 Z"/></g>
<g><path style="opacity:1" fill="#2a303e" d="M 332.5,158.5 C 331.34,159.265 330.34,160.265 329.5,161.5C 332.167,162.5 332.167,163.5 329.5,164.5C 327.151,162.609 324.485,162.276 321.5,163.5C 324.751,161.043 328.418,159.376 332.5,158.5 Z"/></g>
<g><path style="opacity:0.824" fill="#070c13" d="M 181.5,164.5 C 183.543,165.579 184.876,167.246 185.5,169.5C 183.469,168.461 182.136,166.795 181.5,164.5 Z"/></g>
<g><path style="opacity:1" fill="#2c323c" d="M 224.5,157.5 C 223.721,159.713 223.721,162.213 224.5,165C 223.015,168.665 220.349,170.498 216.5,170.5C 219.932,166.636 222.599,162.302 224.5,157.5 Z"/></g>
<g><path style="opacity:1" fill="#21262f" d="M 272.5,159.5 C 269.415,165.339 266.082,171.006 262.5,176.5C 263.979,172.259 265.313,167.925 266.5,163.5C 268.873,162.797 270.873,161.464 272.5,159.5 Z"/></g>
<g><path style="opacity:0.871" fill="#1d232b" d="M 321.5,163.5 C 320.063,164.725 318.396,165.725 316.5,166.5C 315.749,167.376 315.249,168.376 315,169.5C 314.583,168.244 313.75,167.577 312.5,167.5C 315.088,165.375 318.088,164.042 321.5,163.5 Z"/></g>
<g><path style="opacity:0.361" fill="#0d0e14" d="M 185.5,169.5 C 187.027,169.427 188.027,170.094 188.5,171.5C 186.973,171.573 185.973,170.906 185.5,169.5 Z"/></g>
<g><path style="opacity:0.753" fill="#00000a" d="M 188.5,171.5 C 190.027,171.427 191.027,172.094 191.5,173.5C 189.973,173.573 188.973,172.906 188.5,171.5 Z"/></g>
<g><path style="opacity:1" fill="#1a1d27" d="M 216.5,170.5 C 216.013,171.473 215.513,172.473 215,173.5C 214.014,172.829 212.847,172.829 211.5,173.5C 212.659,171.75 214.326,170.75 216.5,170.5 Z"/></g>
<g><path style="opacity:0.439" fill="#131720" d="M 192.5,173.5 C 198.833,174.833 205.167,174.833 211.5,173.5C 205.167,177.5 198.833,177.5 192.5,173.5 Z"/></g>
<g><path style="opacity:0.337" fill="#060913" d="M 262.5,176.5 C 262.262,178.404 261.262,179.738 259.5,180.5C 259.738,178.596 260.738,177.262 262.5,176.5 Z"/></g>
<g><path style="opacity:0.51" fill="#050a12" d="M 151.5,186.5 C 150.5,186.167 149.833,185.5 149.5,184.5C 149.81,183.262 150.31,183.262 151,184.5C 151.464,185.094 151.631,185.761 151.5,186.5 Z"/></g>
<g><path style="opacity:1" fill="#353e52" d="M 9.5,192.5 C 10.5,192.5 11.5,192.5 12.5,192.5C 12.9948,239.998 13.3282,287.498 13.5,335C 13.1667,345.5 12.8333,356 12.5,366.5C 11.914,366.709 11.414,367.043 11,367.5C 9.50427,309.309 9.00427,250.976 9.5,192.5 Z"/></g>
<g><path style="opacity:1" fill="#2a303a" d="M 251.5,194.5 C 249.668,198.836 247.335,202.836 244.5,206.5C 244.167,206.5 243.833,206.5 243.5,206.5C 243.714,204.856 243.38,203.356 242.5,202C 245.612,199.577 248.612,197.077 251.5,194.5 Z"/></g>
<g><path style="opacity:0.506" fill="#0c101a" d="M 161.5,203.5 C 162.674,204.514 163.34,205.847 163.5,207.5C 161.896,206.713 161.229,205.38 161.5,203.5 Z"/></g>
<g><path style="opacity:0.702" fill="#00010b" d="M 243.5,206.5 C 243.833,206.5 244.167,206.5 244.5,206.5C 244.267,208.062 243.6,209.395 242.5,210.5C 241.957,210.44 241.624,210.107 241.5,209.5C 242.193,208.482 242.859,207.482 243.5,206.5 Z"/></g>
<g><path style="opacity:0.868" fill="#1f232f" d="M 3.5,183.5 C 3.5,184.5 3.5,185.5 3.5,186.5C 2.50768,246.792 2.17435,307.125 2.5,367.5C 3.038,369.117 3.37133,370.784 3.5,372.5C 2.77842,372.082 2.27842,371.416 2,370.5C 1.33333,309.167 1.33333,247.833 2,186.5C 2.23209,185.263 2.73209,184.263 3.5,183.5 Z"/></g>
<g><path style="opacity:0.814" fill="#1a222b" d="M 292.5,176.5 C 291.504,242.762 291.17,309.096 291.5,375.5C 292.5,375.5 293.5,375.5 294.5,375.5C 293.469,376.249 292.302,376.915 291,377.5C 290.833,344 290.667,310.5 290.5,277C 290.5,243.16 291.167,209.66 292.5,176.5 Z"/></g>
<g><path style="opacity:1" fill="#343f4f" d="M 136.5,209.5 C 145.21,220.211 153.544,231.211 161.5,242.5C 162.362,246.901 164.696,250.234 168.5,252.5C 167.524,254.123 168.024,255.457 170,256.5C 170.671,255.748 171.504,255.414 172.5,255.5C 172.7,259.123 174.367,261.79 177.5,263.5C 175.468,264.968 175.635,266.635 178,268.5C 178.667,267.167 179.333,267.167 180,268.5C 179.923,269.738 180.089,270.738 180.5,271.5C 182.179,270.218 184.013,269.218 186,268.5C 185.923,269.738 186.089,270.738 186.5,271.5C 187.167,271.167 187.833,270.833 188.5,270.5C 191.443,271.244 194.443,271.744 197.5,272C 198,272.5 198.5,273 199,273.5C 204.069,272.638 208.903,271.305 213.5,269.5C 218.481,266.67 223.148,263.336 227.5,259.5C 231.622,257.315 234.289,253.982 235.5,249.5C 235.833,248.5 236.5,247.833 237.5,247.5C 239.113,245.73 241.113,244.564 243.5,244C 243.167,243.667 242.833,243.333 242.5,243C 243.931,242.535 245.097,241.701 246,240.5C 246.37,237.72 247.37,235.72 249,234.5C 250.356,235.38 251.856,235.714 253.5,235.5C 253.104,232.956 253.771,230.789 255.5,229C 255.167,228.667 254.833,228.333 254.5,228C 256.171,226.157 257.171,223.991 257.5,221.5C 259.445,217.264 262.112,213.597 265.5,210.5C 267.496,265.157 268.163,320.157 267.5,375.5C 266.167,375.5 264.833,375.5 263.5,375.5C 263.5,374.5 263.5,373.5 263.5,372.5C 259.534,371.838 255.534,371.505 251.5,371.5C 249.214,371.405 247.214,370.738 245.5,369.5C 242.567,366.445 238.9,364.945 234.5,365C 235.654,364.086 235.487,363.253 234,362.5C 233.583,363.756 232.75,364.423 231.5,364.5C 230.01,362.72 228.01,362.054 225.5,362.5C 225.167,362.5 224.833,362.5 224.5,362.5C 223.402,361.603 223.402,360.77 224.5,360C 220.83,359.452 217.163,358.952 213.5,358.5C 213.167,358.5 212.833,358.5 212.5,358.5C 211.542,357.038 210.376,355.705 209,354.5C 206.606,355.136 204.106,355.136 201.5,354.5C 200.209,354.737 199.209,354.404 198.5,353.5C 197.496,352.317 196.662,350.984 196,349.5C 193.959,350.423 191.792,350.756 189.5,350.5C 189.611,349.883 189.944,349.383 190.5,349C 187.953,348.933 185.786,348.099 184,346.5C 182.989,347.337 181.822,347.67 180.5,347.5C 173.216,345.739 166.216,343.405 159.5,340.5C 158.531,339.691 157.698,338.691 157,337.5C 155.989,338.337 154.822,338.67 153.5,338.5C 152.01,336.72 150.01,336.054 147.5,336.5C 145.565,335.19 143.565,333.857 141.5,332.5C 140.261,332.942 139.261,333.609 138.5,334.5C 137.833,334.5 137.5,334.167 137.5,333.5C 137.217,332.711 136.717,332.044 136,331.5C 135.5,306.169 135.333,280.836 135.5,255.5C 135.17,239.991 135.504,224.658 136.5,209.5 Z"/></g>
<g><path style="opacity:0.733" fill="#10141b" d="M 167.5,213.5 C 168.401,214.29 169.068,215.29 169.5,216.5C 167.952,216.179 167.285,215.179 167.5,213.5 Z"/></g>
<g><path style="opacity:0.325" fill="#02060a" d="M 241.5,211.5 C 241.573,213.027 240.906,214.027 239.5,214.5C 239.427,212.973 240.094,211.973 241.5,211.5 Z"/></g>
<g><path style="opacity:0.627" fill="#161b23" d="M 136.5,209.5 C 135.504,224.658 135.17,239.991 135.5,255.5C 135.167,255.5 134.833,255.5 134.5,255.5C 134.333,239.163 134.5,222.83 135,206.5C 136.039,207.244 136.539,208.244 136.5,209.5 Z"/></g>
<g><path style="opacity:0.752" fill="#030611" d="M 233.5,224.5 C 233.25,226.674 232.25,228.341 230.5,229.5C 230.273,227.067 231.273,225.401 233.5,224.5 Z"/></g>
<g><path style="opacity:0.271" fill="#04080d" d="M 230.5,229.5 C 230.34,231.153 229.674,232.486 228.5,233.5C 228.229,231.62 228.896,230.287 230.5,229.5 Z"/></g>
<g><path style="opacity:0.715" fill="#0f1625" d="M 397.5,135.5 C 399.173,136.343 400.34,137.676 401,139.5C 401.832,201.001 401.665,262.335 400.5,323.5C 400.667,262.499 400.5,201.499 400,140.5C 398.906,138.922 398.072,137.255 397.5,135.5 Z"/></g>
<g><path style="opacity:0.733" fill="#03050d" d="M 177.5,230.5 C 178.167,231.167 178.833,231.833 179.5,232.5C 179.5,232.833 179.5,233.167 179.5,233.5C 177.952,233.179 177.285,232.179 177.5,230.5 Z"/></g>
<g><path style="opacity:1" fill="#2a313c" d="M 257.5,221.5 C 257.171,223.991 256.171,226.157 254.5,228C 254.833,228.333 255.167,228.667 255.5,229C 253.771,230.789 253.104,232.956 253.5,235.5C 251.856,235.714 250.356,235.38 249,234.5C 247.37,235.72 246.37,237.72 246,240.5C 245.097,241.701 243.931,242.535 242.5,243C 242.833,243.333 243.167,243.667 243.5,244C 241.113,244.564 239.113,245.73 237.5,247.5C 243.85,238.497 250.517,229.83 257.5,221.5 Z"/></g>
<g><path style="opacity:0.953" fill="#01040b" d="M 228.5,233.5 C 228.262,235.404 227.262,236.738 225.5,237.5C 225.554,235.368 226.554,234.035 228.5,233.5 Z"/></g>
<g><path style="opacity:1" fill="#353e52" d="M 3.5,186.5 C 4.5,186.5 5.5,186.5 6.5,186.5C 5.20495,245.197 5.20495,304.03 6.5,363C 5.75112,364.734 5.25112,366.567 5,368.5C 4.32924,367.748 3.4959,367.414 2.5,367.5C 2.17435,307.125 2.50768,246.792 3.5,186.5 Z"/></g>
<g><path style="opacity:0.764" fill="#19202a" d="M 110.5,167.5 C 111.222,167.918 111.722,168.584 112,169.5C 112.167,196.833 112.333,224.167 112.5,251.5C 112.5,279.175 111.833,306.508 110.5,333.5C 111.826,278.209 111.826,222.875 110.5,167.5 Z"/></g>
<g><path style="opacity:0.598" fill="#010106" d="M 225.5,237.5 C 225.715,239.179 225.048,240.179 223.5,240.5C 223.427,238.973 224.094,237.973 225.5,237.5 Z"/></g>
<g><path style="opacity:0.494" fill="#05050f" d="M 183.5,240.5 C 184.906,240.973 185.573,241.973 185.5,243.5C 184.094,243.027 183.427,242.027 183.5,240.5 Z"/></g>
<g><path style="opacity:1" fill="#2a2f39" d="M 190.5,247.5 C 188.251,246.92 186.585,245.587 185.5,243.5C 185.573,241.973 184.906,240.973 183.5,240.5C 181.412,238.664 180.079,236.331 179.5,233.5C 179.5,233.167 179.5,232.833 179.5,232.5C 179.369,231.761 179.536,231.094 180,230.5C 181.867,232.808 182.867,235.475 183,238.5C 184.205,239.071 185.372,239.738 186.5,240.5C 187.104,243.381 188.438,245.714 190.5,247.5 Z"/></g>
<g><path style="opacity:0.259" fill="#01020d" d="M 220.5,244.5 C 220.5,246.5 219.5,247.5 217.5,247.5C 218.167,246.167 219.167,245.167 220.5,244.5 Z"/></g>
<g><path style="opacity:0.51" fill="#061118" d="M 217.5,247.5 C 216.713,249.104 215.38,249.771 213.5,249.5C 214.514,248.326 215.847,247.66 217.5,247.5 Z"/></g>
<g><path style="opacity:0.898" fill="#040911" d="M 213.5,249.5 C 211.898,251.074 209.898,251.741 207.5,251.5C 209.214,250.262 211.214,249.595 213.5,249.5 Z"/></g>
<g><path style="opacity:1" fill="#2a303b" d="M 161.5,242.5 C 165.513,246.515 169.179,250.848 172.5,255.5C 171.504,255.414 170.671,255.748 170,256.5C 168.024,255.457 167.524,254.123 168.5,252.5C 164.696,250.234 162.362,246.901 161.5,242.5 Z"/></g>
<g><path style="opacity:0.867" fill="#1e222b" d="M 235.5,249.5 C 234.289,253.982 231.622,257.315 227.5,259.5C 229.794,255.873 232.46,252.539 235.5,249.5 Z"/></g>
<g><path style="opacity:1" fill="#2d3442" d="M 172.5,255.5 C 182.962,269.321 196.629,273.988 213.5,269.5C 208.903,271.305 204.069,272.638 199,273.5C 198.5,273 198,272.5 197.5,272C 194.443,271.744 191.443,271.244 188.5,270.5C 187.833,270.833 187.167,271.167 186.5,271.5C 186.089,270.738 185.923,269.738 186,268.5C 184.013,269.218 182.179,270.218 180.5,271.5C 180.089,270.738 179.923,269.738 180,268.5C 179.333,267.167 178.667,267.167 178,268.5C 175.635,266.635 175.468,264.968 177.5,263.5C 174.367,261.79 172.7,259.123 172.5,255.5 Z"/></g>
<g><path style="opacity:0.737" fill="#21252e" d="M 134.5,255.5 C 134.833,255.5 135.167,255.5 135.5,255.5C 135.333,280.836 135.5,306.169 136,331.5C 136.717,332.044 137.217,332.711 137.5,333.5C 136.504,333.586 135.671,333.252 135,332.5C 134.5,306.835 134.333,281.169 134.5,255.5 Z"/></g>
<g><path style="opacity:0.631" fill="#192027" d="M 263.5,375.5 C 264.833,375.5 266.167,375.5 267.5,375.5C 268.163,320.157 267.496,265.157 265.5,210.5C 266.072,209.027 266.905,207.693 268,206.5C 268.833,263.503 268.667,320.503 267.5,377.5C 265.974,377.006 264.641,376.339 263.5,375.5 Z"/></g>
<g><path style="opacity:1" fill="#20252e" d="M 147.5,336.5 C 144.5,335.833 141.5,335.167 138.5,334.5C 139.261,333.609 140.261,332.942 141.5,332.5C 143.565,333.857 145.565,335.19 147.5,336.5 Z"/></g>
<g><path style="opacity:0.027" fill="#1a1d24" d="M 110.5,333.5 C 108.574,335.293 106.241,336.293 103.5,336.5C 105.426,334.707 107.759,333.707 110.5,333.5 Z"/></g>
<g><path style="opacity:0.945" fill="#1c222a" d="M 147.5,336.5 C 150.01,336.054 152.01,336.72 153.5,338.5C 151.214,338.405 149.214,337.738 147.5,336.5 Z"/></g>
<g><path style="opacity:1" fill="#28303c" d="M 101.5,337.5 C 97.5836,340.257 93.2503,342.257 88.5,343.5C 88.7489,341.064 89.7489,339.064 91.5,337.5C 92.1924,338.025 92.6924,338.692 93,339.5C 95.5428,338.793 97.7095,337.46 99.5,335.5C 100.182,336.243 100.849,336.909 101.5,337.5 Z"/></g>
<g><path style="opacity:0.871" fill="#1a2028" d="M 159.5,340.5 C 157.214,340.405 155.214,339.738 153.5,338.5C 154.822,338.67 155.989,338.337 157,337.5C 157.698,338.691 158.531,339.691 159.5,340.5 Z"/></g>
<g><path style="opacity:0.986" fill="#202530" d="M 388.5,337.5 C 384.889,339.931 380.889,341.597 376.5,342.5C 377.806,341.032 379.306,339.699 381,338.5C 382.84,339.833 383.34,339.666 382.5,338C 384.305,336.559 386.305,336.392 388.5,337.5 Z"/></g>
<g><path style="opacity:1" fill="#272e39" d="M 81.5,346.5 C 78.2488,348.957 74.5821,350.624 70.5,351.5C 71.4859,349.484 73.1526,348.151 75.5,347.5C 73.8333,345.833 74.1667,344.833 76.5,344.5C 78.0564,345.547 79.7231,346.214 81.5,346.5 Z"/></g>
<g><path style="opacity:1" fill="#232832" d="M 189.5,350.5 C 186.215,350.072 183.215,349.072 180.5,347.5C 181.822,347.67 182.989,347.337 184,346.5C 185.786,348.099 187.953,348.933 190.5,349C 189.944,349.383 189.611,349.883 189.5,350.5 Z"/></g>
<g><path style="opacity:1" fill="#242b35" d="M 198.5,353.5 C 195.215,353.072 192.215,352.072 189.5,350.5C 191.792,350.756 193.959,350.423 196,349.5C 196.662,350.984 197.496,352.317 198.5,353.5 Z"/></g>
<g><path style="opacity:1" fill="#282d39" d="M 376.5,342.5 C 365.216,347.932 353.549,352.599 341.5,356.5C 346.152,351.98 351.818,349.647 358.5,349.5C 358.5,348.167 358.5,346.833 358.5,345.5C 360.467,345.261 362.301,345.594 364,346.5C 364.899,344.484 366.233,342.817 368,341.5C 368.674,342.578 369.674,343.245 371,343.5C 372.825,343.057 374.658,342.723 376.5,342.5 Z"/></g>
<g><path style="opacity:1" fill="#232a34" d="M 201.5,354.5 C 204.106,355.136 206.606,355.136 209,354.5C 210.376,355.705 211.542,357.038 212.5,358.5C 208.605,357.538 204.939,356.204 201.5,354.5 Z"/></g>
<g><path style="opacity:1" fill="#232832" d="M 70.5,351.5 C 65.9303,354.616 60.9303,356.95 55.5,358.5C 55.8565,357.13 56.6898,356.13 58,355.5C 60.8266,355.003 63.3266,353.836 65.5,352C 67.1341,351.506 68.8008,351.34 70.5,351.5 Z"/></g>
<g><path style="opacity:1" fill="#262c35" d="M 213.5,358.5 C 217.163,358.952 220.83,359.452 224.5,360C 223.402,360.77 223.402,361.603 224.5,362.5C 220.605,361.538 216.939,360.204 213.5,358.5 Z"/></g>
<g><path style="opacity:1" fill="#272e3b" d="M 336.5,358.5 C 330.136,361.737 323.47,364.403 316.5,366.5C 317.17,364.328 317.17,362.328 316.5,360.5C 317.425,361.641 318.259,361.641 319,360.5C 319.718,363.234 321.218,363.9 323.5,362.5C 322.462,359.212 323.128,358.879 325.5,361.5C 328.991,359.868 332.658,358.868 336.5,358.5 Z"/></g>
<g><path style="opacity:1" fill="#282e38" d="M 53.5,359.5 C 47.7935,362.684 41.7935,365.35 35.5,367.5C 37.0031,362.918 40.0031,361.252 44.5,362.5C 47.2431,360.668 50.2431,359.668 53.5,359.5 Z"/></g>
<g><path style="opacity:0.957" fill="#1a2029" d="M 225.5,362.5 C 228.01,362.054 230.01,362.72 231.5,364.5C 229.214,364.405 227.214,363.738 225.5,362.5 Z"/></g>
<g><path style="opacity:0.994" fill="#1d222c" d="M 245.5,369.5 C 240.552,368.347 235.885,366.681 231.5,364.5C 232.75,364.423 233.583,363.756 234,362.5C 235.487,363.253 235.654,364.086 234.5,365C 238.9,364.945 242.567,366.445 245.5,369.5 Z"/></g>
<g><path style="opacity:1" fill="#191d28" d="M 316.5,366.5 C 313.47,368.403 310.137,369.737 306.5,370.5C 309.191,367.823 312.525,366.49 316.5,366.5 Z"/></g>
<g><path style="opacity:1" fill="#262b36" d="M 306.5,370.5 C 302.797,372.679 298.797,374.345 294.5,375.5C 297.41,371.041 301.41,369.374 306.5,370.5 Z"/></g>
<g><path style="opacity:1" fill="#222732" d="M 251.5,371.5 C 255.534,371.505 259.534,371.838 263.5,372.5C 263.5,373.5 263.5,374.5 263.5,375.5C 259.216,374.739 255.216,373.405 251.5,371.5 Z"/></g>
<g><path style="opacity:0.035" fill="#0a161a" d="M 29.5,370.5 C 27.5739,372.293 25.2406,373.293 22.5,373.5C 24.4261,371.707 26.7594,370.707 29.5,370.5 Z"/></g>
<g><path style="opacity:0.655" fill="#0a0e17" d="M 5.5,374.5 C 7.60726,375.3 9.77392,375.967 12,376.5C 14.137,375.923 16.3037,375.59 18.5,375.5C 16.8825,376.972 14.8825,377.639 12.5,377.5C 9.49945,377.828 7.16612,376.828 5.5,374.5 Z"/></g>
</svg>
